<?xml version="1.0" encoding="UTF-8" standalone="no"?>
<!-- Created with Inkscape (http://www.inkscape.org/) -->

<svg
   xmlns:dc="http://purl.org/dc/elements/1.1/"
   xmlns:cc="http://creativecommons.org/ns#"
   xmlns:rdf="http://www.w3.org/1999/02/22-rdf-syntax-ns#"
   xmlns:svg="http://www.w3.org/2000/svg"
   xmlns="http://www.w3.org/2000/svg"
   xmlns:sodipodi="http://sodipodi.sourceforge.net/DTD/sodipodi-0.dtd"
   xmlns:inkscape="http://www.inkscape.org/namespaces/inkscape"
   width="210mm"
   height="297mm"
   viewBox="0 0 744.09448819 1052.3622047"
   id="svg5234"
   version="1.1"
   inkscape:version="0.91 r13725"
   sodipodi:docname="redmonster.svg">
  <defs
     id="defs5236" />
  <sodipodi:namedview
     id="base"
     pagecolor="#ffffff"
     bordercolor="#666666"
     borderopacity="1.0"
     inkscape:pageopacity="0.0"
     inkscape:pageshadow="2"
     inkscape:zoom="0.49497475"
     inkscape:cx="-39.242107"
     inkscape:cy="416.72791"
     inkscape:document-units="px"
     inkscape:current-layer="layer1"
     showgrid="false"
     inkscape:window-width="1366"
     inkscape:window-height="705"
     inkscape:window-x="-8"
     inkscape:window-y="-8"
     inkscape:window-maximized="1" />
  <metadata
     id="metadata5239">
    <rdf:RDF>
      <cc:Work
         rdf:about="">
        <dc:format>image/svg+xml</dc:format>
        <dc:type
           rdf:resource="http://purl.org/dc/dcmitype/StillImage" />
        <dc:title></dc:title>
      </cc:Work>
    </rdf:RDF>
  </metadata>
  <g
     inkscape:label="Calque 1"
     inkscape:groupmode="layer"
     id="layer1">
    <g
       id="use13890"
       inkscape:label="Calque 1"
       transform="matrix(0.44864707,0,0,0.46079139,89.38431,261.65253)"
       style="display:inline">
      <path
         inkscape:connector-curvature="0"
         id="path5917"
         d="m 369.73684,712.88852 c -3.90577,3.58563 -4.66946,6.70736 -6.57895,10.52632 -0.39721,0.79444 0.60825,3.33912 0,3.94736 -0.8858,0.88581 -1.66278,0.694 -2.63157,2.63158 -0.89692,1.79383 -0.0395,4.02632 -1.31579,6.57895 -1.22807,2.45614 1.22807,6.75439 0,9.21053 -1.62593,3.25185 -1.31579,-0.45418 -1.31579,2.63158 0,1.88464 1.19948,10.64262 0,11.8421 -0.31014,0.31014 -1.00566,-0.31013 -1.31579,0 -0.5253,0.5253 -0.38381,8.44292 0,9.21053 2.738,5.476 -0.0908,-1.40663 2.63158,1.31579 0.31013,0.31013 -0.31014,1.00565 0,1.31579 1.40568,1.40569 8.46214,-0.51605 10.52631,0 6.81922,1.7048 15.02744,4.98628 22.36842,1.31579 2.10527,-1.05264 5.78948,1.05263 7.89474,0 3.00469,-1.50235 9.60695,-2.63158 13.15789,-2.63158 2.35137,0 31.69438,-5.14773 34.21053,-2.63158 0.31014,0.31013 -0.31013,1.00565 0,1.31579 0.48004,0.48004 23.41123,2.11017 25,1.31579 2.14687,-1.07344 3.74355,-0.55599 5.26316,-1.31579 0.39229,-0.19615 -0.31014,-1.00566 0,-1.31579 0.98022,-0.98022 6.62704,0.42256 7.89474,0 0.58843,-0.19615 0.761,-1.0384 1.31579,-1.31579 2.0955,-1.04776 5.65297,0.74725 7.89473,0 1.71408,-0.57136 4.80084,-2.40932 6.57895,-2.63158 0.94837,-0.11855 15.52646,-0.52639 17.10526,-1.31579 5.476,-2.738 -1.40662,0.0908 1.31579,-2.63158 0.78276,-0.78275 13.99414,-0.41812 15.78948,-1.31579 0.87719,-0.43859 0.49977,-2.08756 1.31579,-2.63158 0.81601,-0.54401 2.08756,-0.49977 2.63157,-1.31579 0.48658,-0.72987 -0.39229,-1.84699 0,-2.63158 0.19615,-0.39229 0.8772,0 1.31579,0 0.4386,-0.43859 1.11965,-0.72735 1.31579,-1.31578 2.25616,-6.76848 3.22179,-12.11285 1.31579,-19.73685 -0.38555,-1.54219 1.0507,-6.84404 0,-7.89473 -0.31013,-0.31014 -1.00565,0.31013 -1.31579,0 -0.62027,-0.62027 0.62027,-2.01131 0,-2.63158 -0.31013,-0.31014 -1.00565,0.31013 -1.31579,0 -0.83462,-0.83462 0.54776,-4.16765 0,-5.26316 -0.27739,-0.55479 -1.03839,-0.761 -1.31579,-1.31579 -1.4035,-2.80702 1.40351,-7.7193 0,-10.52632 -0.27739,-0.55478 -1.03839,-0.761 -1.31579,-1.31579 -0.39229,-0.78458 0.62027,-2.01131 0,-2.63157 -0.31013,-0.31014 -1.11964,0.39229 -1.31578,0 -1.40351,-2.80702 1.4035,-7.7193 0,-10.52632 -0.19615,-0.39229 -1.00566,0.31013 -1.31579,0 -0.62027,-0.62027 0.39229,-1.84699 0,-2.63158 -0.96879,-1.93758 -1.74578,-1.74577 -2.63158,-2.63158 -0.79337,-0.79337 0.0133,-14.46037 -1.31579,-15.78947 -0.31014,-0.31014 -1.11965,0.39229 -1.31579,0 -0.39229,-0.78459 0.27739,-1.7994 0,-2.63158 -0.39229,-1.17688 -2.0768,-1.52201 -2.63158,-2.63158 -0.39722,-0.79444 0.60824,-3.33913 0,-3.94737 -0.31014,-0.31013 -1.11964,0.39229 -1.31579,0 -0.84176,-1.68352 0.0531,-6.52585 -1.31579,-7.89473 -0.88581,-0.88581 -1.66279,-0.694 -2.63158,-2.63158 -1.06022,-2.12044 -1.54717,-4.41014 -2.63158,-6.57895 -1.22807,-2.45614 1.22807,-6.75439 0,-9.21053 -0.19614,-0.39229 -1.00565,0.31014 -1.31579,0 -0.9304,-0.9304 0,-5.26316 0,-3.94737 0,5.14007 0.3923,1.70809 -1.31579,0 -0.31013,-0.31013 -1.00565,0.31014 -1.31579,0 -0.62027,-0.62026 0.3923,-1.84699 0,-2.63157 -0.98118,-1.96238 -2.94378,-3.25599 -3.94736,-5.26316 -0.39722,-0.79444 0.60824,-3.33913 0,-3.94737 -0.31014,-0.31014 -1.00566,0.31013 -1.31579,0 -0.4386,-0.4386 -0.8772,-3.50877 -1.31579,-3.94737 -0.6579,-0.65789 -1.97369,-0.65789 -2.63158,-1.31579 -0.31014,-0.31013 0.31013,-1.00565 0,-1.31579 -0.75949,-0.75949 -13.1579,-1.77043 -13.1579,5.26316 0,1.50751 0.59621,5.38654 0,6.57895 -0.19614,0.39229 -1.11964,-0.3923 -1.31579,0 -0.39229,0.78458 0.3923,1.84699 0,2.63158 -0.11739,0.23478 -3.75363,2.43784 -3.94737,2.63157 -0.62026,0.62027 0.3923,1.847 0,2.63158 -0.55478,1.10957 -2.07679,1.52201 -2.63157,2.63158 -0.3923,0.78459 0.62026,2.01131 0,2.63158 -0.31014,0.31014 -1.00566,-0.31013 -1.31579,0 -1.34886,1.34886 -0.50142,1.50425 -1.31579,3.94737 -0.54419,1.63256 -3.28774,1.97194 -3.94737,2.63158 -1.26315,1.26315 0.8306,6.23353 0,7.89474 -1.792,3.58399 -2.78276,1.46696 -3.94737,2.63157 -0.65921,0.65922 -1.76897,3.08477 -2.63158,3.94737 -0.24245,0.24245 -3.70492,1.07334 -3.94737,1.31579 -0.31013,0.31014 0.31014,1.00566 0,1.31579 -0.31013,0.31014 -1.00565,-0.31013 -1.31579,0 -0.62027,0.62027 0.62027,2.01131 0,2.63158 -0.31013,0.31014 -1.00565,-0.31013 -1.31579,0 -0.62027,0.62027 0.62027,2.01131 0,2.63158 -0.62027,0.62027 -2.01131,-0.62027 -2.63158,0 -0.62026,0.62027 0.62027,2.01131 0,2.63158 -0.62026,0.62027 -2.01131,-0.62027 -2.63157,0 -0.62027,0.62027 0.62026,2.01131 0,2.63158 -0.31014,0.31013 -1.00566,-0.31014 -1.31579,0 -0.76263,0.76263 -1.86895,4.50053 -2.63158,5.26316 -0.8772,0.87719 -3.07018,0.43859 -3.94737,1.31579 -0.31014,0.31013 0.19615,0.92349 0,1.31578 -0.88116,1.76231 -3.13899,1.8232 -3.94737,2.63158 -0.65789,0.6579 -0.65789,1.97369 -1.31579,2.63158 -0.4386,0.4386 -3.50877,0.8772 -3.94737,1.31579 -0.86149,0.86149 -0.81828,3.04072 -2.63158,3.94737 -1.11684,0.55842 -8.90614,2.3272 -9.21052,2.63158 -0.6579,0.65789 -0.6579,1.97368 -1.31579,2.63158 -0.66839,0.66839 -7.48382,0.88411 -9.21053,1.31579 -6.35387,1.58847 0.0652,0.62529 -3.94737,2.63158 -0.78458,0.39229 -2.01131,-0.62027 -2.63158,0 -0.31013,0.31013 0.31014,1.00565 0,1.31579 -0.60824,0.60824 -3.15293,-0.39722 -3.94736,0 -0.55479,0.27739 -0.76101,1.03839 -1.31579,1.31579 -1.56917,0.78458 -3.56116,-0.42551 -5.26316,0 -0.34397,0.086 -11.48048,7.5331 -11.84211,7.89473 -0.31013,0.31014 0.3923,1.11965 0,1.31579 -1.75438,0.8772 -4.82456,-0.87719 -6.57894,0 -5.38787,2.69393 -8.95132,0.52829 -15.78948,3.94737 z"
         style="fill:#725468;fill-opacity:1;fill-rule:evenodd;stroke:#000000;stroke-width:1px;stroke-linecap:butt;stroke-linejoin:miter;stroke-opacity:1" />
      <path
         inkscape:connector-curvature="0"
         id="path5919"
         d="M 282.28571,614.07649 C 119.4761,505.68061 285.17894,232.66596 453.71429,316.93363 c 65.99336,32.99668 108.57142,135.60148 108.57142,205.71429 0,12.89551 -34.28153,100.00418 -54.28571,80 -1.14594,-1.14595 -6.1372,46.1372 -22.85714,62.85714 -40.12979,40.12979 -82.90201,60 -142.85715,60 -73.53645,0 -55.92059,-110.40872 -71.42857,-114.28571"
         style="opacity:1;fill:#000000;fill-opacity:1;fill-rule:evenodd;stroke:#000000;stroke-width:1px;stroke-linecap:butt;stroke-linejoin:miter;stroke-opacity:1" />
      <path
         inkscape:connector-curvature="0"
         id="path5921"
         d="m 298.57143,600.64792 c -14.18191,-38.19364 -51.35906,-65.36672 -60,-108.57143 C 218.2911,390.67487 358.92899,309.36237 430,337.79078 c 16.69414,6.67765 4.1847,23.52092 14.28571,28.57142 2.4763,1.23815 8.23756,-28.794 17.14286,-22.85714 42.38351,28.25567 84.03701,151.24352 74.28572,200 -4.97094,24.85466 -45.31441,31.02869 -60,45.71429 -9.02882,9.02882 -4.18282,49.51423 -17.14286,65.71428 -19.26473,24.08091 -106.06985,68.21587 -137.14286,37.14286 -18.2779,-18.2779 -35.86451,-108.77173 -22.85714,-91.42857"
         style="fill:#e8abd4;fill-opacity:0.49171274;fill-rule:evenodd;stroke:#000000;stroke-width:1px;stroke-linecap:butt;stroke-linejoin:miter;stroke-opacity:1" />
      <path
         sodipodi:nodetypes="ccccc"
         inkscape:connector-curvature="0"
         id="path5923"
         d="m 438.49004,580.37905 c -34.60582,3.28091 -74.4485,-3.9119 -99.70583,18.06597 l 1.7255,79.67479 86.16387,-12.1246 c 16.64152,-30.42365 13.12624,-51.22497 11.81646,-85.61616 z"
         style="fill:#000000;fill-opacity:0.95652173;fill-rule:evenodd;stroke:#000000;stroke-width:5.80000019;stroke-linecap:butt;stroke-linejoin:miter;stroke-miterlimit:4;stroke-dasharray:none;stroke-opacity:1" />
      <path
         inkscape:connector-curvature="0"
         id="path5925"
         d="m 437.71429,424.93363 c -18.69588,-7.06951 -44.319,1.59498 -48.57143,22.85715 -41.10855,205.54272 203.59524,2.98016 31.42857,-25.71429"
         style="fill:#000000;fill-opacity:1;fill-rule:evenodd;stroke:#000000;stroke-width:11.19999981;stroke-linecap:butt;stroke-linejoin:miter;stroke-miterlimit:4;stroke-dasharray:none;stroke-opacity:1" />
      <path
         inkscape:connector-curvature="0"
         id="path5927"
         d="m 332.28571,466.64792 c -14.91724,-3.8753 -23.65626,-4.91517 -34.28571,5.71428 -14.83502,14.83502 -11.42857,25.32425 -11.42857,42.85715 0,72.93156 154.66123,-33.00758 25.71428,-51.42857"
         style="fill:#000000;fill-opacity:1;fill-rule:evenodd;stroke:#000000;stroke-width:9.19999981;stroke-linecap:butt;stroke-linejoin:miter;stroke-miterlimit:4;stroke-dasharray:none;stroke-opacity:1" />
      <path
         inkscape:connector-curvature="0"
         id="path5929"
         d="m 369.06086,360.17569 c -71.10338,-15.69108 -149.77091,119.02367 -22.92119,30.72469 4.27707,-2.97722 24.49794,-26.57501 22.92119,-30.72469 -5.72819,-15.07544 -42.87027,5.22586 -48.02117,8.81136"
         style="fill:#000000;fill-opacity:1;fill-rule:evenodd;stroke:#000000;stroke-width:2.5;stroke-linecap:butt;stroke-linejoin:miter;stroke-miterlimit:4;stroke-dasharray:none;stroke-opacity:1" />
      <path
         inkscape:connector-curvature="0"
         id="path5931"
         d="m -782.85714,363.79078 c -3.87366,-0.64367 -7.61905,1.90476 -11.42857,2.85714"
         style="fill:#00000a;fill-opacity:0.76795577;fill-rule:evenodd;stroke:#000000;stroke-width:1px;stroke-linecap:butt;stroke-linejoin:miter;stroke-opacity:1" />
      <ellipse
         inkscape:transform-center-y="41.293164"
         inkscape:transform-center-x="23.074849"
         transform="matrix(-0.87463395,0.48478393,-0.01695295,-0.99985629,0,0)"
         ry="20.863581"
         rx="19.148066"
         cy="-678.44464"
         cx="-454.65601"
         id="ellipse5933"
         style="opacity:1;fill:#ffffff;fill-opacity:0.95652173;stroke-width:2.5;stroke-miterlimit:4;stroke-dasharray:none" />
      <ellipse
         ry="15.333123"
         rx="14.497553"
         cy="519.14026"
         cx="317.8533"
         id="ellipse5935"
         style="opacity:1;fill:#ffffff;fill-opacity:0.95652173;stroke-width:2.5;stroke-miterlimit:4;stroke-dasharray:none" />
      <rect
         transform="matrix(0.91030695,-0.41393388,0.23877674,0.97107449,0,0)"
         y="694.61066"
         x="206.03278"
         height="30.090754"
         width="11.638219"
         id="rect5937"
         style="opacity:1;fill:#ffffff;fill-opacity:0.95652173;stroke:#000000;stroke-width:0;stroke-miterlimit:4;stroke-dasharray:none;stroke-opacity:1" />
      <rect
         transform="matrix(0.98230598,-0.18728312,0.19112227,0.98156624,0,0)"
         y="704.46747"
         x="229.74246"
         height="27.429012"
         width="17.745245"
         id="rect5939"
         style="opacity:1;fill:#ffffff;fill-opacity:0.95652173;stroke:#000000;stroke-width:1.54063499;stroke-miterlimit:4;stroke-dasharray:none;stroke-opacity:1" />
      <rect
         transform="matrix(0.99371153,-0.1119705,0.09831433,0.99515541,0,0)"
         y="680.06085"
         x="310.94736"
         height="31.521658"
         width="18.3468"
         id="rect5941"
         style="opacity:1;fill:#ffffff;fill-opacity:0.95652173;stroke:#000000;stroke-width:2.95364571;stroke-miterlimit:4;stroke-dasharray:none;stroke-opacity:1" />
      <rect
         transform="matrix(0.99467124,0.10309766,-0.05710539,0.99836816,0,0)"
         y="534.95459"
         x="445.29459"
         height="36.261288"
         width="13.861098"
         id="rect5943"
         style="opacity:1;fill:#ffffff;fill-opacity:0.95652173;stroke:#000000;stroke-width:0.39144111;stroke-miterlimit:4;stroke-dasharray:none;stroke-opacity:1" />
      <path
         sodipodi:nodetypes="cssssssscsssssc"
         inkscape:connector-curvature="0"
         id="path5945"
         d="m 504.57142,618.93363 c 10.1862,25.93817 24.63117,85.46078 22.85715,120 -0.42503,8.27509 -50.23234,33.90693 -68.57143,17.14286 -3.20548,-2.93019 0,0 -5.71429,-14.28571 0,0 -12.17998,31.77496 -19.1341,19.55316 -1.49995,-2.63615 -2.75192,-5.46014 -3.82812,-8.25364 -4.66684,-12.11383 -6.02821,-23.65435 -9.97126,-16.81751 -5.00009,8.66963 -8.93437,15.19295 -12.02741,20.07287 -13.16123,20.76458 -11.09106,11.77382 -11.09106,11.77382 -11.51747,-0.62943 -25.19966,2.9532 -28.6148,-2.69459 -6.63188,-10.96747 5.17767,-34.7776 4.66675,-37.91983 -5.00434,-30.77709 -36.76193,50.78304 -25.71428,51.42857 26.1985,1.53083 72.96051,4.83647 97.14285,0 28.59762,-5.71952 98.04408,0.0767 105.71429,-11.42857 28.61602,-42.92403 -18.79192,-175.64079 -57.14286,-162.85714"
         style="fill:#000000;fill-opacity:1;fill-rule:evenodd;stroke:#000000;stroke-width:3.20000005;stroke-linecap:butt;stroke-linejoin:miter;stroke-miterlimit:4;stroke-dasharray:none;stroke-opacity:1" />
      <rect
         transform="matrix(0.99714514,-0.07550876,0.06180887,0.998088,0,0)"
         y="673.18817"
         x="355.43759"
         height="24.854939"
         width="12.928182"
         id="rect5947"
         style="opacity:1;fill:#ffffff;fill-opacity:0.95652173;stroke:#000000;stroke-width:0.94374597;stroke-miterlimit:4;stroke-dasharray:none;stroke-opacity:1" />
      <ellipse
         inkscape:transform-center-y="-4.4192274"
         inkscape:transform-center-x="-11.061191"
         transform="matrix(0.86543801,-0.50101603,0.04658731,0.99891422,0,0)"
         ry="6.1338067"
         rx="36.60257"
         cy="549.90021"
         cx="349.25168"
         id="ellipse5949"
         style="opacity:1;fill:#c9c9c9;fill-opacity:0.49171274;stroke:#000000;stroke-width:0.41727674;stroke-miterlimit:4;stroke-dasharray:none;stroke-opacity:1" />
    </g>
    <g
       transform="matrix(2.2125426,0,0,2.2125426,-2912.4981,-50.55316)"
       id="g13966">
      <path
         sodipodi:nodetypes="ccccccccccccccc"
         inkscape:connector-curvature="0"
         id="path13973"
         d="m 1382.2499,240.12625 c 7.1203,-5.94859 14.8904,-8.80232 19.4356,-14.40357 -2.1342,-6.57605 -10.6764,-17.75743 -10.6764,-17.75743 0,0 17.9866,2.37697 24.5229,2.30507 2.7272,-7.29116 1.0353,-22.13821 1.0353,-22.13821 0,0 10.2526,13.04352 12.7491,17.49158 7.3084,-0.65801 21.1174,-17.69742 21.1174,-17.69742 l 1.1405,17.76033 c 4.2304,0.79089 21.041,-6.53468 25.1179,-5.25758 -2.8344,4.54695 -14.1777,27.62227 -14.1777,27.62227 -4.7564,-4.27767 -9.962,-7.89299 -15.3509,-11.50123 -5.5231,-4.41147 -15.5,6.93151 -21.6389,10.42031 -6.9941,3.48589 -17.4998,-3.8983 -18.5436,3.53937 -0.9357,3.54807 -2.5512,9.30616 -2.8023,15.15759 -6.7049,3.9493 -17.247,-4.36599 -21.9289,-5.54108 z"
         style="fill:#f41219;fill-opacity:1;fill-rule:evenodd;stroke:#000000;stroke-width:2.63945961px;stroke-linecap:butt;stroke-linejoin:miter;stroke-opacity:1" />
    </g>
    <g
       id="use13890-0"
       inkscape:label="Calque 1"
       transform="matrix(0.44864707,0,0,0.46079139,1342.0483,1611.0726)"
       style="display:inline">
      <path
         inkscape:connector-curvature="0"
         id="path5953"
         d="m 369.73684,712.88852 c -3.90577,3.58563 -4.66946,6.70736 -6.57895,10.52632 -0.39721,0.79444 0.60825,3.33912 0,3.94736 -0.8858,0.88581 -1.66278,0.694 -2.63157,2.63158 -0.89692,1.79383 -0.0395,4.02632 -1.31579,6.57895 -1.22807,2.45614 1.22807,6.75439 0,9.21053 -1.62593,3.25185 -1.31579,-0.45418 -1.31579,2.63158 0,1.88464 1.19948,10.64262 0,11.8421 -0.31014,0.31014 -1.00566,-0.31013 -1.31579,0 -0.5253,0.5253 -0.38381,8.44292 0,9.21053 2.738,5.476 -0.0908,-1.40663 2.63158,1.31579 0.31013,0.31013 -0.31014,1.00565 0,1.31579 1.40568,1.40569 8.46214,-0.51605 10.52631,0 6.81922,1.7048 15.02744,4.98628 22.36842,1.31579 2.10527,-1.05264 5.78948,1.05263 7.89474,0 3.00469,-1.50235 9.60695,-2.63158 13.15789,-2.63158 2.35137,0 31.69438,-5.14773 34.21053,-2.63158 0.31014,0.31013 -0.31013,1.00565 0,1.31579 0.48004,0.48004 23.41123,2.11017 25,1.31579 2.14687,-1.07344 3.74355,-0.55599 5.26316,-1.31579 0.39229,-0.19615 -0.31014,-1.00566 0,-1.31579 0.98022,-0.98022 6.62704,0.42256 7.89474,0 0.58843,-0.19615 0.761,-1.0384 1.31579,-1.31579 2.0955,-1.04776 5.65297,0.74725 7.89473,0 1.71408,-0.57136 4.80084,-2.40932 6.57895,-2.63158 0.94837,-0.11855 15.52646,-0.52639 17.10526,-1.31579 5.476,-2.738 -1.40662,0.0908 1.31579,-2.63158 0.78276,-0.78275 13.99414,-0.41812 15.78948,-1.31579 0.87719,-0.43859 0.49977,-2.08756 1.31579,-2.63158 0.81601,-0.54401 2.08756,-0.49977 2.63157,-1.31579 0.48658,-0.72987 -0.39229,-1.84699 0,-2.63158 0.19615,-0.39229 0.8772,0 1.31579,0 0.4386,-0.43859 1.11965,-0.72735 1.31579,-1.31578 2.25616,-6.76848 3.22179,-12.11285 1.31579,-19.73685 -0.38555,-1.54219 1.0507,-6.84404 0,-7.89473 -0.31013,-0.31014 -1.00565,0.31013 -1.31579,0 -0.62027,-0.62027 0.62027,-2.01131 0,-2.63158 -0.31013,-0.31014 -1.00565,0.31013 -1.31579,0 -0.83462,-0.83462 0.54776,-4.16765 0,-5.26316 -0.27739,-0.55479 -1.03839,-0.761 -1.31579,-1.31579 -1.4035,-2.80702 1.40351,-7.7193 0,-10.52632 -0.27739,-0.55478 -1.03839,-0.761 -1.31579,-1.31579 -0.39229,-0.78458 0.62027,-2.01131 0,-2.63157 -0.31013,-0.31014 -1.11964,0.39229 -1.31578,0 -1.40351,-2.80702 1.4035,-7.7193 0,-10.52632 -0.19615,-0.39229 -1.00566,0.31013 -1.31579,0 -0.62027,-0.62027 0.39229,-1.84699 0,-2.63158 -0.96879,-1.93758 -1.74578,-1.74577 -2.63158,-2.63158 -0.79337,-0.79337 0.0133,-14.46037 -1.31579,-15.78947 -0.31014,-0.31014 -1.11965,0.39229 -1.31579,0 -0.39229,-0.78459 0.27739,-1.7994 0,-2.63158 -0.39229,-1.17688 -2.0768,-1.52201 -2.63158,-2.63158 -0.39722,-0.79444 0.60824,-3.33913 0,-3.94737 -0.31014,-0.31013 -1.11964,0.39229 -1.31579,0 -0.84176,-1.68352 0.0531,-6.52585 -1.31579,-7.89473 -0.88581,-0.88581 -1.66279,-0.694 -2.63158,-2.63158 -1.06022,-2.12044 -1.54717,-4.41014 -2.63158,-6.57895 -1.22807,-2.45614 1.22807,-6.75439 0,-9.21053 -0.19614,-0.39229 -1.00565,0.31014 -1.31579,0 -0.9304,-0.9304 0,-5.26316 0,-3.94737 0,5.14007 0.3923,1.70809 -1.31579,0 -0.31013,-0.31013 -1.00565,0.31014 -1.31579,0 -0.62027,-0.62026 0.3923,-1.84699 0,-2.63157 -0.98118,-1.96238 -2.94378,-3.25599 -3.94736,-5.26316 -0.39722,-0.79444 0.60824,-3.33913 0,-3.94737 -0.31014,-0.31014 -1.00566,0.31013 -1.31579,0 -0.4386,-0.4386 -0.8772,-3.50877 -1.31579,-3.94737 -0.6579,-0.65789 -1.97369,-0.65789 -2.63158,-1.31579 -0.31014,-0.31013 0.31013,-1.00565 0,-1.31579 -0.75949,-0.75949 -13.1579,-1.77043 -13.1579,5.26316 0,1.50751 0.59621,5.38654 0,6.57895 -0.19614,0.39229 -1.11964,-0.3923 -1.31579,0 -0.39229,0.78458 0.3923,1.84699 0,2.63158 -0.11739,0.23478 -3.75363,2.43784 -3.94737,2.63157 -0.62026,0.62027 0.3923,1.847 0,2.63158 -0.55478,1.10957 -2.07679,1.52201 -2.63157,2.63158 -0.3923,0.78459 0.62026,2.01131 0,2.63158 -0.31014,0.31014 -1.00566,-0.31013 -1.31579,0 -1.34886,1.34886 -0.50142,1.50425 -1.31579,3.94737 -0.54419,1.63256 -3.28774,1.97194 -3.94737,2.63158 -1.26315,1.26315 0.8306,6.23353 0,7.89474 -1.792,3.58399 -2.78276,1.46696 -3.94737,2.63157 -0.65921,0.65922 -1.76897,3.08477 -2.63158,3.94737 -0.24245,0.24245 -3.70492,1.07334 -3.94737,1.31579 -0.31013,0.31014 0.31014,1.00566 0,1.31579 -0.31013,0.31014 -1.00565,-0.31013 -1.31579,0 -0.62027,0.62027 0.62027,2.01131 0,2.63158 -0.31013,0.31014 -1.00565,-0.31013 -1.31579,0 -0.62027,0.62027 0.62027,2.01131 0,2.63158 -0.62027,0.62027 -2.01131,-0.62027 -2.63158,0 -0.62026,0.62027 0.62027,2.01131 0,2.63158 -0.62026,0.62027 -2.01131,-0.62027 -2.63157,0 -0.62027,0.62027 0.62026,2.01131 0,2.63158 -0.31014,0.31013 -1.00566,-0.31014 -1.31579,0 -0.76263,0.76263 -1.86895,4.50053 -2.63158,5.26316 -0.8772,0.87719 -3.07018,0.43859 -3.94737,1.31579 -0.31014,0.31013 0.19615,0.92349 0,1.31578 -0.88116,1.76231 -3.13899,1.8232 -3.94737,2.63158 -0.65789,0.6579 -0.65789,1.97369 -1.31579,2.63158 -0.4386,0.4386 -3.50877,0.8772 -3.94737,1.31579 -0.86149,0.86149 -0.81828,3.04072 -2.63158,3.94737 -1.11684,0.55842 -8.90614,2.3272 -9.21052,2.63158 -0.6579,0.65789 -0.6579,1.97368 -1.31579,2.63158 -0.66839,0.66839 -7.48382,0.88411 -9.21053,1.31579 -6.35387,1.58847 0.0652,0.62529 -3.94737,2.63158 -0.78458,0.39229 -2.01131,-0.62027 -2.63158,0 -0.31013,0.31013 0.31014,1.00565 0,1.31579 -0.60824,0.60824 -3.15293,-0.39722 -3.94736,0 -0.55479,0.27739 -0.76101,1.03839 -1.31579,1.31579 -1.56917,0.78458 -3.56116,-0.42551 -5.26316,0 -0.34397,0.086 -11.48048,7.5331 -11.84211,7.89473 -0.31013,0.31014 0.3923,1.11965 0,1.31579 -1.75438,0.8772 -4.82456,-0.87719 -6.57894,0 -5.38787,2.69393 -8.95132,0.52829 -15.78948,3.94737 z"
         style="fill:#725468;fill-opacity:1;fill-rule:evenodd;stroke:#000000;stroke-width:1px;stroke-linecap:butt;stroke-linejoin:miter;stroke-opacity:1" />
      <path
         inkscape:connector-curvature="0"
         id="path5955"
         d="M 282.28571,614.07649 C 119.4761,505.68061 285.17894,232.66596 453.71429,316.93363 c 65.99336,32.99668 108.57142,135.60148 108.57142,205.71429 0,12.89551 -34.28153,100.00418 -54.28571,80 -1.14594,-1.14595 -6.1372,46.1372 -22.85714,62.85714 -40.12979,40.12979 -82.90201,60 -142.85715,60 -73.53645,0 -55.92059,-110.40872 -71.42857,-114.28571"
         style="opacity:1;fill:#000000;fill-opacity:1;fill-rule:evenodd;stroke:#000000;stroke-width:1px;stroke-linecap:butt;stroke-linejoin:miter;stroke-opacity:1" />
      <path
         inkscape:connector-curvature="0"
         id="path5957"
         d="m 298.57143,600.64792 c -14.18191,-38.19364 -51.35906,-65.36672 -60,-108.57143 C 218.2911,390.67487 358.92899,309.36237 430,337.79078 c 16.69414,6.67765 4.1847,23.52092 14.28571,28.57142 2.4763,1.23815 8.23756,-28.794 17.14286,-22.85714 42.38351,28.25567 84.03701,151.24352 74.28572,200 -4.97094,24.85466 -45.31441,31.02869 -60,45.71429 -9.02882,9.02882 -4.18282,49.51423 -17.14286,65.71428 -19.26473,24.08091 -106.06985,68.21587 -137.14286,37.14286 -18.2779,-18.2779 -35.86451,-108.77173 -22.85714,-91.42857"
         style="fill:#e8abd4;fill-opacity:0.49171274;fill-rule:evenodd;stroke:#000000;stroke-width:1px;stroke-linecap:butt;stroke-linejoin:miter;stroke-opacity:1" />
      <path
         sodipodi:nodetypes="ccccc"
         inkscape:connector-curvature="0"
         id="path5959"
         d="m 438.49004,580.37905 c -34.60582,3.28091 -74.4485,-3.9119 -99.70583,18.06597 l 1.7255,79.67479 86.16387,-12.1246 c 16.64152,-30.42365 13.12624,-51.22497 11.81646,-85.61616 z"
         style="fill:#000000;fill-opacity:0.95652173;fill-rule:evenodd;stroke:#000000;stroke-width:5.80000019;stroke-linecap:butt;stroke-linejoin:miter;stroke-miterlimit:4;stroke-dasharray:none;stroke-opacity:1" />
      <path
         inkscape:connector-curvature="0"
         id="path5961"
         d="m 437.71429,424.93363 c -18.69588,-7.06951 -44.319,1.59498 -48.57143,22.85715 -41.10855,205.54272 203.59524,2.98016 31.42857,-25.71429"
         style="fill:#000000;fill-opacity:1;fill-rule:evenodd;stroke:#000000;stroke-width:11.19999981;stroke-linecap:butt;stroke-linejoin:miter;stroke-miterlimit:4;stroke-dasharray:none;stroke-opacity:1" />
      <path
         inkscape:connector-curvature="0"
         id="path5963"
         d="m 332.28571,466.64792 c -14.91724,-3.8753 -23.65626,-4.91517 -34.28571,5.71428 -14.83502,14.83502 -11.42857,25.32425 -11.42857,42.85715 0,72.93156 154.66123,-33.00758 25.71428,-51.42857"
         style="fill:#000000;fill-opacity:1;fill-rule:evenodd;stroke:#000000;stroke-width:9.19999981;stroke-linecap:butt;stroke-linejoin:miter;stroke-miterlimit:4;stroke-dasharray:none;stroke-opacity:1" />
      <path
         inkscape:connector-curvature="0"
         id="path5965"
         d="m 369.06086,360.17569 c -71.10338,-15.69108 -149.77091,119.02367 -22.92119,30.72469 4.27707,-2.97722 24.49794,-26.57501 22.92119,-30.72469 -5.72819,-15.07544 -42.87027,5.22586 -48.02117,8.81136"
         style="fill:#000000;fill-opacity:1;fill-rule:evenodd;stroke:#000000;stroke-width:2.5;stroke-linecap:butt;stroke-linejoin:miter;stroke-miterlimit:4;stroke-dasharray:none;stroke-opacity:1" />
      <path
         inkscape:connector-curvature="0"
         id="path5967"
         d="m -782.85714,363.79078 c -3.87366,-0.64367 -7.61905,1.90476 -11.42857,2.85714"
         style="fill:#00000a;fill-opacity:0.76795577;fill-rule:evenodd;stroke:#000000;stroke-width:1px;stroke-linecap:butt;stroke-linejoin:miter;stroke-opacity:1" />
      <ellipse
         inkscape:transform-center-y="41.293164"
         inkscape:transform-center-x="23.074849"
         transform="matrix(-0.87463395,0.48478393,-0.01695295,-0.99985629,0,0)"
         ry="20.863581"
         rx="19.148066"
         cy="-678.44464"
         cx="-454.65601"
         id="ellipse5969"
         style="opacity:1;fill:#ffffff;fill-opacity:0.95652173;stroke-width:2.5;stroke-miterlimit:4;stroke-dasharray:none" />
      <ellipse
         ry="15.333123"
         rx="14.497553"
         cy="519.14026"
         cx="317.8533"
         id="ellipse5971"
         style="opacity:1;fill:#ffffff;fill-opacity:0.95652173;stroke-width:2.5;stroke-miterlimit:4;stroke-dasharray:none" />
      <rect
         transform="matrix(0.91030695,-0.41393388,0.23877674,0.97107449,0,0)"
         y="694.61066"
         x="206.03278"
         height="30.090754"
         width="11.638219"
         id="rect5973"
         style="opacity:1;fill:#ffffff;fill-opacity:0.95652173;stroke:#000000;stroke-width:0;stroke-miterlimit:4;stroke-dasharray:none;stroke-opacity:1" />
      <rect
         transform="matrix(0.98230598,-0.18728312,0.19112227,0.98156624,0,0)"
         y="704.46747"
         x="229.74246"
         height="27.429012"
         width="17.745245"
         id="rect5975"
         style="opacity:1;fill:#ffffff;fill-opacity:0.95652173;stroke:#000000;stroke-width:1.54063499;stroke-miterlimit:4;stroke-dasharray:none;stroke-opacity:1" />
      <rect
         transform="matrix(0.99371153,-0.1119705,0.09831433,0.99515541,0,0)"
         y="680.06085"
         x="310.94736"
         height="31.521658"
         width="18.3468"
         id="rect5977"
         style="opacity:1;fill:#ffffff;fill-opacity:0.95652173;stroke:#000000;stroke-width:2.95364571;stroke-miterlimit:4;stroke-dasharray:none;stroke-opacity:1" />
      <rect
         transform="matrix(0.99467124,0.10309766,-0.05710539,0.99836816,0,0)"
         y="534.95459"
         x="445.29459"
         height="36.261288"
         width="13.861098"
         id="rect5979"
         style="opacity:1;fill:#ffffff;fill-opacity:0.95652173;stroke:#000000;stroke-width:0.39144111;stroke-miterlimit:4;stroke-dasharray:none;stroke-opacity:1" />
      <path
         sodipodi:nodetypes="cssssssscsssssc"
         inkscape:connector-curvature="0"
         id="path5981"
         d="m 504.57142,618.93363 c 10.1862,25.93817 24.63117,85.46078 22.85715,120 -0.42503,8.27509 -50.23234,33.90693 -68.57143,17.14286 -3.20548,-2.93019 0,0 -5.71429,-14.28571 0,0 -12.17998,31.77496 -19.1341,19.55316 -1.49995,-2.63615 -2.75192,-5.46014 -3.82812,-8.25364 -4.66684,-12.11383 -6.02821,-23.65435 -9.97126,-16.81751 -5.00009,8.66963 -8.93437,15.19295 -12.02741,20.07287 -13.16123,20.76458 -11.09106,11.77382 -11.09106,11.77382 -11.51747,-0.62943 -25.19966,2.9532 -28.6148,-2.69459 -6.63188,-10.96747 5.17767,-34.7776 4.66675,-37.91983 -5.00434,-30.77709 -36.76193,50.78304 -25.71428,51.42857 26.1985,1.53083 72.96051,4.83647 97.14285,0 28.59762,-5.71952 98.04408,0.0767 105.71429,-11.42857 28.61602,-42.92403 -18.79192,-175.64079 -57.14286,-162.85714"
         style="fill:#000000;fill-opacity:1;fill-rule:evenodd;stroke:#000000;stroke-width:3.20000005;stroke-linecap:butt;stroke-linejoin:miter;stroke-miterlimit:4;stroke-dasharray:none;stroke-opacity:1" />
      <rect
         transform="matrix(0.99714514,-0.07550876,0.06180887,0.998088,0,0)"
         y="673.18817"
         x="355.43759"
         height="24.854939"
         width="12.928182"
         id="rect5983"
         style="opacity:1;fill:#ffffff;fill-opacity:0.95652173;stroke:#000000;stroke-width:0.94374597;stroke-miterlimit:4;stroke-dasharray:none;stroke-opacity:1" />
      <ellipse
         inkscape:transform-center-y="-4.4192274"
         inkscape:transform-center-x="-11.061191"
         transform="matrix(0.86543801,-0.50101603,0.04658731,0.99891422,0,0)"
         ry="6.1338067"
         rx="36.60257"
         cy="549.90021"
         cx="349.25168"
         id="ellipse5985"
         style="opacity:1;fill:#c9c9c9;fill-opacity:0.49171274;stroke:#000000;stroke-width:0.41727674;stroke-miterlimit:4;stroke-dasharray:none;stroke-opacity:1" />
    </g>
  </g>
</svg>
