<?xml version="1.0" encoding="UTF-8" standalone="no"?>
<!-- Created with Inkscape (http://www.inkscape.org/) -->

<svg
   xmlns:dc="http://purl.org/dc/elements/1.1/"
   xmlns:cc="http://creativecommons.org/ns#"
   xmlns:rdf="http://www.w3.org/1999/02/22-rdf-syntax-ns#"
   xmlns:svg="http://www.w3.org/2000/svg"
   xmlns="http://www.w3.org/2000/svg"
   xmlns:sodipodi="http://sodipodi.sourceforge.net/DTD/sodipodi-0.dtd"
   xmlns:inkscape="http://www.inkscape.org/namespaces/inkscape"
   width="210mm"
   height="297mm"
   viewBox="0 0 744.09448819 1052.3622047"
   id="svg4341"
   version="1.1"
   inkscape:version="0.91 r13725"
   sodipodi:docname="gun.svg">
  <defs
     id="defs4343" />
  <sodipodi:namedview
     id="base"
     pagecolor="#ffffff"
     bordercolor="#666666"
     borderopacity="1.0"
     inkscape:pageopacity="0.0"
     inkscape:pageshadow="2"
     inkscape:zoom="1.4"
     inkscape:cx="86.755259"
     inkscape:cy="541.66653"
     inkscape:document-units="px"
     inkscape:current-layer="layer1"
     showgrid="false"
     inkscape:window-width="1366"
     inkscape:window-height="705"
     inkscape:window-x="-8"
     inkscape:window-y="-8"
     inkscape:window-maximized="1" />
  <metadata
     id="metadata4346">
    <rdf:RDF>
      <cc:Work
         rdf:about="">
        <dc:format>image/svg+xml</dc:format>
        <dc:type
           rdf:resource="http://purl.org/dc/dcmitype/StillImage" />
        <dc:title />
      </cc:Work>
    </rdf:RDF>
  </metadata>
  <g
     inkscape:label="Calque 1"
     inkscape:groupmode="layer"
     id="layer1">
    <g
       transform="matrix(-0.98067357,0.1956511,0.1956511,0.98067357,-225.02257,-204.24123)"
       id="g4921">
      <ellipse
         style="color:#000000;clip-rule:nonzero;display:inline;overflow:visible;visibility:visible;opacity:1;isolation:auto;mix-blend-mode:normal;color-interpolation:sRGB;color-interpolation-filters:linearRGB;solid-color:#000000;solid-opacity:1;fill:#313131;fill-opacity:1;fill-rule:nonzero;stroke:#0d0d0d;stroke-width:1;stroke-linecap:round;stroke-linejoin:round;stroke-miterlimit:4;stroke-dasharray:none;stroke-dashoffset:0;stroke-opacity:1;color-rendering:auto;image-rendering:auto;shape-rendering:auto;text-rendering:auto;enable-background:accumulate"
         id="path4232"
         cx="-262.32144"
         cy="692.18365"
         rx="4.1071429"
         ry="2.6785715" />
      <ellipse
         style="color:#000000;clip-rule:nonzero;display:inline;overflow:visible;visibility:visible;opacity:1;isolation:auto;mix-blend-mode:normal;color-interpolation:sRGB;color-interpolation-filters:linearRGB;solid-color:#000000;solid-opacity:1;fill:#313131;fill-opacity:1;fill-rule:nonzero;stroke:#0d0d0d;stroke-width:1;stroke-linecap:round;stroke-linejoin:round;stroke-miterlimit:4;stroke-dasharray:none;stroke-dashoffset:0;stroke-opacity:1;color-rendering:auto;image-rendering:auto;shape-rendering:auto;text-rendering:auto;enable-background:accumulate"
         id="path4230"
         cx="-419.10715"
         cy="733.79077"
         rx="3.75"
         ry="2.5" />
      <path
         sodipodi:nodetypes="ccccccccccccccccccccccccccccccccccccscccccccc"
         inkscape:connector-curvature="0"
         style="fill:#552200;fill-rule:evenodd;stroke:#000000;stroke-width:1px;stroke-linecap:butt;stroke-linejoin:miter;stroke-opacity:1"
         d="m -244.96289,716.48633 -177.28125,48.99219 4.54687,7.57617 6.56446,5.05078 8.58789,-1.51563 10.10156,0.50586 6.06055,5.05078 1.51562,7.57618 -2.52539,4.04101 -5.55664,5.55469 -3.03125,3.53711 -4.03906,13.13086 -0.50586,12.62695 L -398,842.25 l 1.51562,2.52539 54.54688,-9.0918 3.03125,-5.55468 0,-43.4375 0.83655,-4.79937 53.71228,-12.87837 -2.52539,-5.55469 0.5039,-8.08203 4.54688,-8.58593 c 7.52637,-4.13027 15.41953,-5.23464 23.73828,-6.56641 l 4.04102,-2.52539 1.51367,-4.04102 8.08203,-1.00976 1.51562,-6.56641 3.0293,-2.52539 -1.00977,-2.52539 -2.01953,-3.53516 z m -82.32617,42.17383 3.66287,-2.44679 c 9.95277,-3.32838 27.50245,-16.0232 28.55086,-6.64692 1.96958,0.24949 0.14168,13.17113 5.1312,14.00167 -8.7478,4.99079 -21.88643,6.33998 -32.14343,8.89676 -4.89259,1.21959 -9.88654,1.73969 -12.01986,4.88278 l -3.78906,0.50586 -1.76758,-1.00977 -1.26172,-5.30469 0.5039,-3.53515 6.81836,-5.8086 2.7793,-3.2832 z"
         id="path4226" />
      <path
         style="fill:#5d5d5d;fill-opacity:1;fill-rule:evenodd;stroke:#000000;stroke-width:1px;stroke-linecap:butt;stroke-linejoin:miter;stroke-opacity:1"
         d="m -422.14286,764.50506 -5.71428,-12.14286 181.42857,-49.28571 4.28571,5 0.71429,7.85714 -14.28572,3.57143 z"
         id="path4220"
         inkscape:connector-curvature="0" />
      <path
         style="fill:#313131;fill-opacity:1;fill-rule:evenodd;stroke:#000000;stroke-width:1px;stroke-linecap:butt;stroke-linejoin:miter;stroke-opacity:1"
         d="m -427.41708,751.81644 -1.51523,-6.54061 5.17332,-8.5863 14.64721,-3.53553 45.45686,-11.61675 1.01016,12.12183 z"
         id="path4222"
         inkscape:connector-curvature="0"
         sodipodi:nodetypes="ccccccc" />
      <path
         style="fill:#313131;fill-opacity:1;fill-rule:evenodd;stroke:#000000;stroke-width:1px;stroke-linecap:butt;stroke-linejoin:miter;stroke-opacity:1"
         d="m -325.7742,724.5677 -13.63706,-9.59645 84.34774,-22.72843 8.08122,9.59645 z"
         id="path4224"
         inkscape:connector-curvature="0" />
      <path
         style="fill:#101010;fill-opacity:1;fill-rule:evenodd;stroke:#000000;stroke-width:1px;stroke-linecap:butt;stroke-linejoin:miter;stroke-opacity:1"
         d="m -362.5,734.50506 37.14286,-10.35714 -12.6616,-8.25241 -24.8384,6.82384 z"
         id="path4228"
         inkscape:connector-curvature="0"
         sodipodi:nodetypes="ccccc" />
      <path
         sodipodi:nodetypes="cccccccccc"
         style="fill:#5d5d5d;fill-opacity:1;fill-rule:evenodd;stroke:#000000;stroke-width:1px;stroke-linecap:butt;stroke-linejoin:miter;stroke-opacity:1"
         d="M -354.27277,838.25161 -355,807.00506 l 0.71429,-6.42857 5,-9.64286 6.42857,-10 3.21428,-1.78571 1.42857,3.21428 0,47.85715 -3.21428,5 z"
         id="path4234"
         inkscape:connector-curvature="0" />
      <path
         style="fill:none;fill-rule:evenodd;stroke:#000000;stroke-width:1px;stroke-linecap:butt;stroke-linejoin:miter;stroke-opacity:1"
         d="M -331.78571,774.8622 -290,765.21935 l 0,-3.21429 -4.40433,-12.47282 -23.80996,5.32996 -13.92857,4.28572 -7.85714,8.57143 -1.07143,4.28571 c 1.1775,5.15483 2.90651,8.26151 9.28572,2.85714 z"
         id="path4236"
         inkscape:connector-curvature="0"
         sodipodi:nodetypes="ccccccccc" />
      <path
         inkscape:connector-curvature="0"
         style="fill:#5d5d5d;fill-opacity:1;fill-rule:evenodd;stroke:#000000;stroke-width:1px;stroke-linecap:butt;stroke-linejoin:miter;stroke-opacity:1"
         d="m -277.88086,752.7832 -83.69726,5.15235 c 0,0 -1.4325,3.62683 -1.46876,5.53515 -0.0445,2.34433 0.41319,4.8078 1.54493,6.86133 1.24316,2.25572 3.25865,4.13511 5.46679,5.46094 3.0768,1.84738 6.71428,2.90649 10.29493,3.14844 1.06167,0.0717 3.15234,-0.51563 3.15234,-0.51563 l 0.53906,0.9082 0.15625,-0.1875 1.09766,3.10743 55.29297,-4.04297 -0.91407,-6.37305 3.07618,-8.125 3.2207,-5.18555 5.45898,-5.46484 -3.2207,-0.2793 z m -14.55859,5.11914 0,13.63672 -19.69727,2.52539 -0.16797,-0.19531 -20.33593,1.45313 -3.46485,1.88281 -3.81641,-0.24414 -1.53515,-1.33594 -0.19922,-5.44922 c 0,0 0.42964,-2.44967 1.18555,-3.36914 3.93967,-1.70931 7.57707,-6.08682 11.1914,-7.03711 1.15005,-0.27023 3.51563,0.44336 3.51563,0.44336 l -0.83985,4.21094 1.9336,3.21679 2.72265,1.83204 5.05469,1.78125 1.43555,0.54297 2.58984,1.41601 -11.39258,-13.28906 31.82032,-2.02149 z m -20.42774,15.31055 0.5625,0.65625 0.5625,-0.041 -1.125,-0.61523 z"
         transform="matrix(0.98067357,-0.1956511,0.1956511,0.98067357,-156.55805,-50.597145)"
         id="path4238" />
      <path
         style="fill:#5d5d5d;fill-opacity:1;fill-rule:evenodd;stroke:#000000;stroke-width:1px;stroke-linecap:butt;stroke-linejoin:miter;stroke-opacity:1"
         d="m -409.64286,777.00506 c 0,0 6.96305,-6.77597 11.42857,-8.21428 2.83287,-0.91245 5.99082,-0.47673 8.92858,0 2.2296,0.36181 4.37237,1.20794 6.42857,2.14285 2.13742,0.97184 4.52863,1.80146 6.07143,3.57143 2.0338,2.33327 2.84836,5.56183 3.57142,8.57143 0.72519,3.01849 1.52552,6.2892 0.71429,9.28571 -4.50955,8.23841 -12.50601,15.98509 -16.07143,18.57143 -2.41204,1.84231 -4.56215,4.15245 -6.07143,6.78572 -1.74109,3.03771 -2.94425,6.50913 -3.21428,10 -0.35321,4.56621 2.14285,13.57143 2.14285,13.57143 l 0.35715,2.5 -1.07143,1.07142 -5,-17.14285 0,-11.42857 3.2664,-7.15413 2.44788,-7.13159 4.64286,-6.07143 3.57143,-3.21428 3.21429,-2.5 -2.85715,-7.5 -5,-5 -8.21428,-0.35715 z"
         id="path4240"
         inkscape:connector-curvature="0"
         sodipodi:nodetypes="csssssccsscccccccccccccc" />
      <path
         sodipodi:nodetypes="ccccccccccccccc"
         style="fill:#5d5d5d;fill-opacity:1;fill-rule:evenodd;stroke:#000000;stroke-width:1px;stroke-linecap:butt;stroke-linejoin:miter;stroke-opacity:1"
         d="m -241.87176,718.60683 -45.01156,12.52687 -3.03046,4.54568 -0.50508,4.04061 -20.70812,5.55584 -5.55584,-7.57614 -4.04061,0 4.54568,9.59645 4.04061,1.51522 33.33504,-7.57614 c -5.07817,9.19051 -0.75615,0.0987 4.6655,-1.70854 2.58661,0.19906 5.3581,-0.90178 7.91064,-1.48279 l 14.1929,-3.87974 7.91347,-1.91965 z"
         id="path4242"
         inkscape:connector-curvature="0" />
      <path
         style="fill:none;fill-rule:evenodd;stroke:#000000;stroke-width:1px;stroke-linecap:butt;stroke-linejoin:miter;stroke-opacity:1"
         d="m -325.01658,757.6502 11.61675,10.35406 -7.82868,-1.01015 -3.19337,-1.17078 -2.83026,-2.52566 0.46779,-5.14239 z"
         id="path4246"
         inkscape:connector-curvature="0"
         sodipodi:nodetypes="ccccccc" />
    </g>
  </g>
</svg>
