<?xml version="1.0" encoding="UTF-8" standalone="no"?>
<!-- Created with Inkscape (http://www.inkscape.org/) -->

<svg
   xmlns:dc="http://purl.org/dc/elements/1.1/"
   xmlns:cc="http://creativecommons.org/ns#"
   xmlns:rdf="http://www.w3.org/1999/02/22-rdf-syntax-ns#"
   xmlns:svg="http://www.w3.org/2000/svg"
   xmlns="http://www.w3.org/2000/svg"
   xmlns:sodipodi="http://sodipodi.sourceforge.net/DTD/sodipodi-0.dtd"
   xmlns:inkscape="http://www.inkscape.org/namespaces/inkscape"
   id="svg5488"
   version="1.1"
   inkscape:version="0.91 r13725"
   width="625"
   height="475"
   viewBox="0 0 625 475"
   sodipodi:docname="shotgun.svg">
  <metadata
     id="metadata5494">
    <rdf:RDF>
      <cc:Work
         rdf:about="">
        <dc:format>image/svg+xml</dc:format>
        <dc:type
           rdf:resource="http://purl.org/dc/dcmitype/StillImage" />
        <dc:title></dc:title>
      </cc:Work>
    </rdf:RDF>
  </metadata>
  <defs
     id="defs5492" />
  <sodipodi:namedview
     pagecolor="#ffffff"
     bordercolor="#666666"
     borderopacity="1"
     objecttolerance="10"
     gridtolerance="10"
     guidetolerance="10"
     inkscape:pageopacity="0"
     inkscape:pageshadow="2"
     inkscape:window-width="1366"
     inkscape:window-height="705"
     id="namedview5490"
     showgrid="false"
     inkscape:zoom="0.40044574"
     inkscape:cx="331.24512"
     inkscape:cy="114.45946"
     inkscape:window-x="-8"
     inkscape:window-y="-8"
     inkscape:window-maximized="1"
     inkscape:current-layer="svg5488" />
  <path
     style="fill:#2d3138;fill-opacity:1;fill-rule:evenodd;stroke:#000000;stroke-width:2;stroke-linecap:butt;stroke-linejoin:miter;stroke-opacity:1;stroke-miterlimit:4;stroke-dasharray:none"
     d="m 141.46514,191.4758 -1.95933,5.65827 -0.39186,6.91567 1.17559,3.77217 71.72676,-0.32971 5.55515,-7.50671 104.59789,-2.5104 -0.76511,2.48592 25.39821,0.31654 21.16071,0.62871 2.35119,-3.1435 0,-3.77217 -0.78373,-4.40087 z"
     id="path5498"
     inkscape:connector-curvature="0"
     sodipodi:nodetypes="cccccccccccccc" />
  <path
     style="fill:#3a4048;fill-opacity:1;fill-rule:evenodd;stroke:#000000;stroke-width:2;stroke-linecap:butt;stroke-linejoin:miter;stroke-miterlimit:4;stroke-dasharray:none;stroke-opacity:1"
     d="m 139.81411,208.34522 -0.41865,8.33419 1.25595,2.56438 68.55224,-1.29898 0.1065,-3.18867 2.31436,-6.76094 z"
     id="path5502"
     inkscape:connector-curvature="0"
     sodipodi:nodetypes="ccccccc" />
  <path
     style="fill:#5f452f;fill-rule:evenodd;stroke:#000000;stroke-width:1px;stroke-linecap:butt;stroke-linejoin:miter;stroke-opacity:1;fill-opacity:1"
     d="m 209.14195,218.41093 2.18506,4.37013 5.93089,-1.87292 8.74026,1.87292 21.85065,3.74582 30.59091,0.62431 18.10483,3.12152 30.59091,-2.49722 0,-10.61317 3.74583,-0.62431 -0.62431,-16.23191 -42.45269,0.62431 -3.12152,-2.49722 -66.80056,1.87291 -6.24305,7.49165 z"
     id="path5504"
     inkscape:connector-curvature="0"
     sodipodi:nodetypes="cccccccccccccccc" />
  <path
     style="fill:#a9a7a5;fill-rule:evenodd;stroke:#000000;stroke-width:1px;stroke-linecap:butt;stroke-linejoin:miter;stroke-opacity:1;fill-opacity:1"
     d="m 327.11431,227.34665 59.15428,0.8829 -0.44145,-2.20725 -5.73885,-2.20724 -3.5316,-1.32435 -1.32435,-1.7658 0.44145,-19.42379 4.4145,-0.8829 4.85595,0 0.8829,-3.97305 0,-3.5316 -3.09015,0 -12.3606,-1.7658 0,4.85595 -2.64869,5.2974 -37.52324,-0.8829 0.8829,16.77509 -4.4145,0.44145 z"
     id="path5506"
     inkscape:connector-curvature="0" />
  <path
     style="fill:#463d38;fill-opacity:1;fill-rule:evenodd;stroke:#000000;stroke-width:1px;stroke-linecap:butt;stroke-linejoin:miter;stroke-opacity:1"
     d="m 425.99907,229.5539 11.91915,-3.09015 6.18029,-5.73884 3.5316,-4.4145 0.8829,-0.44145 16.33364,9.27045 5.73885,7.94609 4.85595,7.50465 2.20725,11.03624 0,4.85595 -9.27045,4.85595 -11.91914,3.09015 -3.09015,0 -0.8829,-9.27045 -2.6487,-6.62174 -4.4145,-5.73885 -5.73884,-4.85595 -7.50465,-4.4145 -6.62175,-3.42124 z"
     id="path5508"
     inkscape:connector-curvature="0"
     sodipodi:nodetypes="cccccccccccccccccccc" />
  <path
     style="fill:#2d3138;fill-opacity:1;fill-rule:evenodd;stroke:#000000;stroke-width:1px;stroke-linecap:butt;stroke-linejoin:miter;stroke-opacity:1"
     d="m 383.32285,228.3998 -3.43367,4.37013 c -2.75295,2.88993 -2.2456,5.556 -0.62431,8.74026 2.06231,4.47103 6.29149,5.73572 10.61317,6.24304 3.83008,0.44201 7.7908,0.23362 11.54963,-0.6243 2.6375,-0.60198 5.24384,-1.61618 7.49166,-3.12153 1.95624,-1.31008 3.81269,-2.95809 4.99443,-4.99443 0.59547,-1.02609 0.83776,-2.25142 0.93646,-3.43367 0.087,-1.04207 -0.70125,-2.15091 -0.31216,-3.12153 0.35694,-0.89042 2.18507,-1.87291 2.18507,-1.87291 l -3.43367,-1.87291 -4.05798,-0.31215 c 0,0 2.01719,2.54398 2.49722,4.05797 0.50415,1.59005 0.90209,3.43418 0.31215,4.99444 -0.57247,1.51404 -2.10939,2.50293 -3.43368,3.43367 -1.59942,1.12411 -3.46513,1.84083 -5.30658,2.49722 -5.77514,2.08509 -13.06489,2.51916 -18.41698,0.31215 -1.34409,-0.61676 -2.80039,-1.47299 -3.43367,-2.80937 -0.71292,-1.50444 -0.53608,-3.41829 0,-4.99443 0.54952,-1.61566 1.99554,-2.77559 3.12152,-4.05798 0.77671,-0.8846 2.49722,-2.49722 2.49722,-2.49722 l 0.6243,-0.6243 z"
     id="path5510"
     inkscape:connector-curvature="0"
     sodipodi:nodetypes="ccccssssscccsssccsssccc" />
  <path
     style="fill:#5f442a;fill-opacity:1;fill-rule:evenodd;stroke:#000000;stroke-width:1px;stroke-linecap:butt;stroke-linejoin:miter;stroke-opacity:1"
     d="m 413.28946,228.08764 3.74582,2.3333 8.11596,-0.46038 13.01896,-3.48723 10.39245,-10.24747 -37.14611,-13.11039 -24.66002,-6.55519 -1.87291,3.74582 -9.36456,0.93646 -0.62431,19.72239 1.67976,1.92515 9.13521,3.03142 c 0.84049,0.54546 -0.15149,2.46765 2.05576,2.90079 0.34716,-0.0151 20.02137,-0.60365 25.52399,-0.73467 z"
     id="path5512"
     inkscape:connector-curvature="0"
     sodipodi:nodetypes="cccccccccccccc" />
  <path
     style="fill:#2d3138;fill-rule:evenodd;stroke:#000000;stroke-width:1px;stroke-linecap:butt;stroke-linejoin:miter;stroke-opacity:1;fill-opacity:1"
     d="m 385.82007,192.5023 12.79823,3.43367 5.61874,-3.12152 3.43368,1.24861 -0.62431,3.43367 -1.87291,1.24861 0.93646,2.49722 -19.66559,-4.68228 z"
     id="path5514"
     inkscape:connector-curvature="0" />
  <path
     style="fill:#2d3138;fill-opacity:1;fill-rule:evenodd;stroke:#000000;stroke-width:1px;stroke-linecap:butt;stroke-linejoin:miter;stroke-opacity:1"
     d="m 389.86483,228.70888 9.86798,3.93517 3.97305,0.66218 1.54507,4.19377 0.36341,4.29859 1.62311,-0.76699 0.22073,-3.97305 -1.92188,-4.24733 -0.5061,-2.59514 0.44145,-1.98653 z"
     id="path5516"
     inkscape:connector-curvature="0"
     sodipodi:nodetypes="ccccccccccc" />
  <path
     style="fill:#463d38;fill-opacity:1;fill-rule:evenodd;stroke:#000000;stroke-width:1px;stroke-linecap:butt;stroke-linejoin:miter;stroke-opacity:1"
     d="m 239.53018,224.72869 14.9833,-15.45153 24.97217,-2.49722 18.10483,0.6243 -1.24861,8.11596 -11.86178,0.6243 -10.61318,11.0814 -25.98823,-0.32929 z"
     id="path5522-7"
     inkscape:connector-curvature="0"
     sodipodi:nodetypes="ccccccccc" />
  <path
     style="fill:#2d3138;fill-opacity:1;fill-rule:evenodd;stroke:#000000;stroke-width:1px;stroke-linecap:butt;stroke-linejoin:miter;stroke-opacity:1"
     d="m 284.53453,198.45213 3.26976,2.16612 33.621,-0.11036 0.91753,-2.93866 z"
     id="path5547"
     inkscape:connector-curvature="0"
     sodipodi:nodetypes="ccccc" />
</svg>
