<?xml version="1.0" encoding="UTF-8" standalone="no"?>
<!-- Created with Inkscape (http://www.inkscape.org/) -->

<svg
   xmlns:dc="http://purl.org/dc/elements/1.1/"
   xmlns:cc="http://creativecommons.org/ns#"
   xmlns:rdf="http://www.w3.org/1999/02/22-rdf-syntax-ns#"
   xmlns:svg="http://www.w3.org/2000/svg"
   xmlns="http://www.w3.org/2000/svg"
   xmlns:sodipodi="http://sodipodi.sourceforge.net/DTD/sodipodi-0.dtd"
   xmlns:inkscape="http://www.inkscape.org/namespaces/inkscape"
   id="svg4136"
   version="1.1"
   inkscape:version="0.91 r13725"
   width="400"
   height="275"
   viewBox="0 0 400 275"
   sodipodi:docname="uzi.svg">
  <metadata
     id="metadata4142">
    <rdf:RDF>
      <cc:Work
         rdf:about="">
        <dc:format>image/svg+xml</dc:format>
        <dc:type
           rdf:resource="http://purl.org/dc/dcmitype/StillImage" />
        <dc:title></dc:title>
      </cc:Work>
    </rdf:RDF>
  </metadata>
  <defs
     id="defs4140" />
  <sodipodi:namedview
     pagecolor="#ffffff"
     bordercolor="#666666"
     borderopacity="1"
     objecttolerance="10"
     gridtolerance="10"
     guidetolerance="10"
     inkscape:pageopacity="0"
     inkscape:pageshadow="2"
     inkscape:window-width="1366"
     inkscape:window-height="705"
     id="namedview4138"
     showgrid="false"
     inkscape:zoom="0.9375"
     inkscape:cx="148.45676"
     inkscape:cy="-97.307749"
     inkscape:window-x="-8"
     inkscape:window-y="-8"
     inkscape:window-maximized="1"
     inkscape:current-layer="svg4136" />
  <path
     style="fill:#191919;fill-rule:evenodd;stroke:#000000;stroke-width:1px;stroke-linecap:butt;stroke-linejoin:miter;stroke-opacity:1;fill-opacity:1"
     d="M 3.7333333,370.46667 157.33333,367.8 l -1.06666,28.26667 0.53333,15.46666 -153.0666667,0 0,-24.53333 z"
     id="path4146"
     inkscape:connector-curvature="0" />
  <path
     style="fill:#191919;fill-rule:evenodd;stroke:#000000;stroke-width:1px;stroke-linecap:butt;stroke-linejoin:miter;stroke-opacity:1;fill-opacity:1"
     d="M 4.8,411 -0.53333333,401.93333 0,380.6 4.2666667,370.46667 Z"
     id="path4148"
     inkscape:connector-curvature="0" />
  <path
     style="fill:#191919;fill-rule:evenodd;stroke:#000000;stroke-width:1px;stroke-linecap:butt;stroke-linejoin:miter;stroke-opacity:1;fill-opacity:1"
     d="M 157.6,411.26667 156.26667,390.2 l 1.6,-21.6 L 159.2,369.93333 160.53333,381.4 160,381.13333 l -0.8,11.2 1.06667,6.93334 1.06666,1.06666 -0.26666,7.46667 z"
     id="path4150"
     inkscape:connector-curvature="0" />
  <path
     style="fill:#191919;fill-rule:evenodd;stroke:#000000;stroke-width:1px;stroke-linecap:butt;stroke-linejoin:miter;stroke-opacity:1;fill-opacity:1"
     d="m 160.53333,381.13333 1.33334,0.26667 0.8,18.13333 -1.33334,0.26667 -2.66666,-6.93333 1.86666,-10.66667 z"
     id="path4152"
     inkscape:connector-curvature="0" />
  <path
     style="fill:#191919;fill-rule:evenodd;stroke:#000000;stroke-width:1px;stroke-linecap:butt;stroke-linejoin:miter;stroke-opacity:1;fill-opacity:1"
     d="M 161.86667,380.6 162.4,375.53333 164.53333,375 l 1.33334,-0.53333 -0.53334,38.13333 -1.06666,-0.26667 -1.6,-1.06666 -0.8,-2.13334 z"
     id="path4154"
     inkscape:connector-curvature="0" />
  <path
     style="fill:#505050;fill-rule:evenodd;stroke:#000000;stroke-width:1px;stroke-linecap:butt;stroke-linejoin:miter;stroke-opacity:1;fill-opacity:1"
     d="m 165.93439,375.51406 36.95812,0.37712 -13.95358,13.19932 0.75425,16.21632 6.03398,6.78823 13.57645,-0.75425 5.65685,6.78822 0,14.3307 -48.64895,0 z"
     id="path4156"
     inkscape:connector-curvature="0" />
  <path
     style="fill:#282828;fill-rule:evenodd;stroke:#000000;stroke-width:1px;stroke-linecap:butt;stroke-linejoin:miter;stroke-opacity:1;fill-opacity:1"
     d="m 214.96046,419.63752 2.63987,-0.37712 0.37712,21.49604 2.63987,6.03398 4.9026,1.88562 38.46661,0 1.13137,2.63986 -41.4836,0 -7.54247,-4.14836 -2.26274,-6.03398 z"
     id="path4158"
     inkscape:connector-curvature="0" />
  <path
     style="fill:#505050;fill-opacity:1;fill-rule:evenodd;stroke:#000000;stroke-width:1px;stroke-linecap:butt;stroke-linejoin:miter;stroke-opacity:1"
     d="m 264.74078,452.07015 0.75425,56.56854 36.20386,-0.37712 -1.13137,-91.26392 -33.75256,-0.18856 -3.9598,3.9598 0.75425,27.90715 z"
     id="path4160"
     inkscape:connector-curvature="0"
     sodipodi:nodetypes="cccccccc" />
  <path
     style="fill:#282828;fill-rule:evenodd;stroke:#000000;stroke-width:1px;stroke-linecap:butt;stroke-linejoin:miter;stroke-opacity:1;fill-opacity:1"
     d="m 302.07602,508.26157 19.98755,-0.75425 -2.26274,-24.13591 -2.26274,-16.21632 -5.27974,-15.46206 -0.37712,-15.8392 10.93659,-10.93658 4.14836,-5.27973 -2.63987,-2.63987 -23.75879,-0.37712 z"
     id="path4162"
     inkscape:connector-curvature="0" />
  <path
     style="fill:#505050;fill-rule:evenodd;stroke:#000000;stroke-width:1px;stroke-linecap:butt;stroke-linejoin:miter;stroke-opacity:1;fill-opacity:1"
     d="m 166.31151,375.13693 -0.75424,-30.54701 47.8947,0.37712 3.39411,4.90261 26.77578,-0.37712 -4.52549,-4.52549 45.63196,0.37713 8.29672,26.39865 0.75425,0.75425 -42.99209,0 -8.67385,10.18233 -46.00908,-0.37712 6.4111,-6.4111 z"
     id="path4164"
     inkscape:connector-curvature="0" />
  <path
     style="fill:#191919;fill-rule:evenodd;stroke:#000000;stroke-width:1px;stroke-linecap:butt;stroke-linejoin:miter;stroke-opacity:1;fill-opacity:1"
     d="m 178.00235,320.07688 0,22.62742 3.77123,0.75425 10.55946,0.37712 -0.37712,-24.13591 z"
     id="path4166"
     inkscape:connector-curvature="0" />
  <path
     style="fill:#191919;fill-rule:evenodd;stroke:#000000;stroke-width:1px;stroke-linecap:butt;stroke-linejoin:miter;stroke-opacity:1;fill-opacity:1"
     d="m 197.9899,320.45401 36.95811,-0.37713 0.75425,20.7418 6.78823,8.29672 -24.51304,1.13137 -6.4111,-8.29672 -12.06796,0.37713 z"
     id="path4168"
     inkscape:connector-curvature="0" />
  <path
     style="fill:#191919;fill-rule:evenodd;stroke:#000000;stroke-width:1px;stroke-linecap:butt;stroke-linejoin:miter;stroke-opacity:1;fill-opacity:1"
     d="m 197.6,322.33333 -2.53333,-0.4 0.13333,19.2 4.13333,0.26667 z"
     id="path4170"
     inkscape:connector-curvature="0" />
  <path
     style="fill:#191919;fill-rule:evenodd;stroke:#000000;stroke-width:1px;stroke-linecap:butt;stroke-linejoin:miter;stroke-opacity:1;fill-opacity:1"
     d="m 192.26667,320.06667 2.93333,0 -0.13333,23.06666 -2.4,0.53334 z"
     id="path4172"
     inkscape:connector-curvature="0" />
  <path
     style="fill:#191919;fill-rule:evenodd;stroke:#000000;stroke-width:1px;stroke-linecap:butt;stroke-linejoin:miter;stroke-opacity:1;fill-opacity:1"
     d="m 235.73333,321 9.73334,0.66667 1.46666,3.06666 0.26667,12.93334 -1.33333,4.66666 L 238.4,342.86667 235.73333,341 Z"
     id="path4174"
     inkscape:connector-curvature="0" />
  <path
     style="fill:#505050;fill-rule:evenodd;stroke:#000000;stroke-width:1px;stroke-linecap:butt;stroke-linejoin:miter;stroke-opacity:1;fill-opacity:1"
     d="m 335.2629,368.72583 -42.9921,-0.75425 1.5085,4.71405 -41.29504,-0.18856 -1.88562,-0.18857 -8.67384,9.80522 -45.25483,0.18856 -7.9196,7.35391 1.13137,1.69706 -1.13137,1.69705 71.27636,-0.18856 2.63987,1.88562 47.8947,0.18856 z"
     id="path4192"
     inkscape:connector-curvature="0" />
  <path
     style="fill:#191919;fill-rule:evenodd;stroke:#000000;stroke-width:1px;stroke-linecap:butt;stroke-linejoin:miter;stroke-opacity:1;fill-opacity:1"
     d="M 194.66667,385.13333 304,384.06667 l 2.66667,3.2 -0.53334,4 L 304.26667,391.8 189.6,391.26667 l -1.33333,-1.6 z"
     id="path4176"
     inkscape:connector-curvature="0" />
  <path
     style="fill:#191919;fill-rule:evenodd;stroke:#000000;stroke-width:1px;stroke-linecap:butt;stroke-linejoin:miter;stroke-opacity:1;fill-opacity:1"
     d="M 244.26667,381.13333 304.8,380.86667 306.66667,378.2 l 0,-3.2 -2.93334,-0.8 -53.86666,-0.26667 z"
     id="path4178"
     inkscape:connector-curvature="0" />
  <path
     style="fill:#505050;fill-rule:evenodd;stroke:#000000;stroke-width:1px;stroke-linecap:butt;stroke-linejoin:miter;stroke-opacity:1;fill-opacity:1"
     d="m 189.33333,393.13333 70.13334,-0.8 2.93333,2.4 48.26667,0 27.2,-28 25.86666,-0.53333 2.66667,2.4 0.8,2.13333 0.53333,40.8 -1.06666,2.93334 -1.86667,0.8 0.26667,2.13333 -2.4,1.06667 L 345.6,419.8 344,418.2 337.33333,417.93333 336.26667,419.8 328,420.06667 l -3.2,-3.73334 -108,0.26667 -0.26667,1.06667 -1.06666,0 -6.13334,-6.13334 -13.6,0.26667 -6.13333,-6.13333 z"
     id="path4180"
     inkscape:connector-curvature="0" />
  <path
     style="fill:#282828;fill-rule:evenodd;stroke:#000000;stroke-width:1px;stroke-linecap:butt;stroke-linejoin:miter;stroke-opacity:1;fill-opacity:1"
     d="m 336.26667,419.8 0.8,1.86667 7.46666,-0.8 0.8,-0.53334 L 344,418.2 l -6.93333,0 -1.86667,1.86667 z"
     id="path4182"
     inkscape:connector-curvature="0" />
  <path
     style="fill:#767676;fill-rule:evenodd;stroke:#000000;stroke-width:1px;stroke-linecap:butt;stroke-linejoin:miter;stroke-opacity:1;fill-opacity:1"
     d="m 277.86667,508.6 0.53333,86.93333 30.4,-1.6 1.06667,-85.86666 z"
     id="path4184"
     inkscape:connector-curvature="0" />
  <path
     style="fill:#191919;fill-rule:evenodd;stroke:#000000;stroke-width:1px;stroke-linecap:butt;stroke-linejoin:miter;stroke-opacity:1;fill-opacity:1"
     d="m 218.13333,420.06667 42.13334,-0.26667 1.06666,-2.93333 -43.46666,0 1.33333,4.53333 0.26667,-1.33333 z"
     id="path4186"
     inkscape:connector-curvature="0" />
  <path
     style="fill:none;fill-rule:evenodd;stroke:#000000;stroke-width:1px;stroke-linecap:butt;stroke-linejoin:miter;stroke-opacity:1"
     d="m 220.8,420.06667 6.66667,5.33333 7.2,0 6.66666,-5.6"
     id="path4188"
     inkscape:connector-curvature="0" />
  <path
     style="fill:#282828;fill-rule:evenodd;stroke:#000000;stroke-width:1px;stroke-linecap:butt;stroke-linejoin:miter;stroke-opacity:1;fill-opacity:1"
     d="m 250.4,420.6 0.8,9.86667 -1.06667,4.8 -3.2,4.8 -1.6,3.2 3.46667,-0.53334 7.46667,-8.26666 1.86666,-8 L 258.4,420.6 l 0.26667,-0.8 -39.46667,0.53333 8.8,5.33334 6.93333,-0.26667 6.4,-6.13333 z"
     id="path4190"
     inkscape:connector-curvature="0" />
  <path
     style="fill:#282828;fill-rule:evenodd;stroke:#000000;stroke-width:1px;stroke-linecap:butt;stroke-linejoin:miter;stroke-opacity:1;fill-opacity:1"
     d="m 297.36197,367.4059 0,-3.20555 1.5085,-1.31994 3.77123,-1.31993 15.08495,-1.31993 14.14213,-1.5085 15.27351,-2.07418 13.95357,-2.82842 9.61666,-2.82843 8.67384,0.18856 5.27973,2.26274 3.20555,3.77124 2.63987,6.03398 0.56568,6.59966 0.18856,29.22708 3.9598,9.42809 1.69706,6.59967 0.56568,6.03397 0.37713,2.63987 -11.50227,-16.40488 -1.88562,-1.50849 3.39411,-6.4111 -2.07418,-3.9598 -0.75425,-8.86241 0,-15.08494 -0.37712,-6.4111 -1.5085,-3.9598 -3.77123,-3.77124 -6.78823,0.18856 -5.84541,0.94281 -16.40488,3.20555 -11.31371,2.07418 -20.36467,2.82843 -4.33693,0.94281 z"
     id="path4194"
     inkscape:connector-curvature="0" />
  <path
     style="fill:#505050;fill-rule:evenodd;stroke:#000000;stroke-width:1px;stroke-linecap:butt;stroke-linejoin:miter;stroke-opacity:1;fill-opacity:1"
     d="m 316.66667,367.66667 18.93333,0.8 2.93333,-1.86667 31.2,-6.26667 5.73334,2.26667 4,3.73333 0.66666,7.46667 0.4,13.6 1.06667,7.2 -0.13333,9.46667 0.13333,1.2 2.93333,0.4 3.6,-6.4 -2.13333,-3.6 -0.93333,-8.53334 L 384.93333,366.6 384,362.6 383.2,360.73333 379.6,357 l -6.53333,0.4 -31.33334,5.73333 z"
     id="path4196"
     inkscape:connector-curvature="0" />
  <path
     style="fill:#282828;fill-rule:evenodd;stroke:#000000;stroke-width:1px;stroke-linecap:butt;stroke-linejoin:miter;stroke-opacity:1;fill-opacity:1"
     d="m 368.53333,406.06667 4.8,0.13333 2.13334,-1.06667 4.66666,0.13334 0.8,0 3.6,0.4 13.33334,17.6 1.6,5.86666 0.13333,4 -2.8,2.53334 -2.66667,1.6 L 390,438.6 l -12,0 -0.53333,-0.66667 -0.53334,1.2 -3.2,0.66667 -1.86666,0.8 -1.33334,-0.4 -0.13333,-20.26667 -1.06667,-1.2 L 366,418.6 365.33333,415.93333 366.66667,415 l 1.2,-4.26667 z"
     id="path4198"
     inkscape:connector-curvature="0" />
</svg>
