<?xml version="1.0" encoding="UTF-8" standalone="no"?>
<!-- Created with Inkscape (http://www.inkscape.org/) -->

<svg
   xmlns:dc="http://purl.org/dc/elements/1.1/"
   xmlns:cc="http://creativecommons.org/ns#"
   xmlns:rdf="http://www.w3.org/1999/02/22-rdf-syntax-ns#"
   xmlns:svg="http://www.w3.org/2000/svg"
   xmlns="http://www.w3.org/2000/svg"
   xmlns:sodipodi="http://sodipodi.sourceforge.net/DTD/sodipodi-0.dtd"
   xmlns:inkscape="http://www.inkscape.org/namespaces/inkscape"
   id="svg6987"
   version="1.1"
   inkscape:version="0.91 r13725"
   width="765"
   height="604"
   viewBox="0 0 765 604"
   sodipodi:docname="water-gun.svg">
  <metadata
     id="metadata6993">
    <rdf:RDF>
      <cc:Work
         rdf:about="">
        <dc:format>image/svg+xml</dc:format>
        <dc:type
           rdf:resource="http://purl.org/dc/dcmitype/StillImage" />
        <dc:title />
      </cc:Work>
    </rdf:RDF>
  </metadata>
  <defs
     id="defs6991" />
  <sodipodi:namedview
     pagecolor="#ffffff"
     bordercolor="#666666"
     borderopacity="1"
     objecttolerance="10"
     gridtolerance="10"
     guidetolerance="10"
     inkscape:pageopacity="0"
     inkscape:pageshadow="2"
     inkscape:window-width="1366"
     inkscape:window-height="705"
     id="namedview6989"
     showgrid="false"
     inkscape:zoom="0.44536424"
     inkscape:cx="141.16971"
     inkscape:cy="260.50736"
     inkscape:window-x="-8"
     inkscape:window-y="-8"
     inkscape:window-maximized="1"
     inkscape:current-layer="svg6987" />
  <g
     id="g7515"
     transform="matrix(-1,0,0,1,565.25284,0)">
    <g
       id="g7667">
      <path
         style="fill:#fbf493;fill-opacity:1;fill-rule:evenodd;stroke:none;stroke-width:1px;stroke-linecap:butt;stroke-linejoin:miter;stroke-opacity:1"
         d="m 131.94321,215.5539 c -6.63846,-8.60385 6.74107,-25.30955 17.07552,-36.65468 16.78882,-18.43073 14.29519,-17.92017 11.50727,18.90634 -1.08286,14.30373 -22.29723,7.90859 -28.58279,17.74834 z"
         id="path7003"
         inkscape:connector-curvature="0"
         sodipodi:nodetypes="cssc" />
      <path
         style="fill:#fbf493;fill-opacity:1;fill-rule:evenodd;stroke:#000000;stroke-width:1px;stroke-linecap:butt;stroke-linejoin:miter;stroke-opacity:1"
         d="m 371.60595,209.94052 c 9.05168,5.31169 13.84809,11.23728 14.59479,15.71747 1.00447,6.02683 -4.02603,23.83921 -8.64112,31.39383 -3.77556,6.18035 -6.90179,3.26766 -9.3217,0.0411 -6.98975,-9.31965 6.58061,-32.94624 0,-49.39777 z"
         id="path7007"
         inkscape:connector-curvature="0"
         sodipodi:nodetypes="cssscc" />
      <path
         style="fill:#f6e713;fill-opacity:1;fill-rule:evenodd;stroke:none;stroke-width:1px;stroke-linecap:butt;stroke-linejoin:miter;stroke-opacity:1"
         d="m 135.84386,276.17844 c -0.4245,24.16832 -29.55149,66.99869 -5.61338,90.9368 5.80351,5.80351 28.06692,-7.08473 28.06692,1.12267 0,6.36184 17.96282,-1.12268 17.96282,-1.12268 6.37529,-7.96771 29.73526,-71.86173 17.96283,-79.71002 -14.72525,-9.81683 -61.52702,-9.33807 -58.37919,-11.22677 z"
         id="path7009"
         inkscape:connector-curvature="0"
         sodipodi:nodetypes="cssssc" />
      <path
         style="fill:#fbf493;fill-opacity:1;fill-rule:evenodd;stroke:#000000;stroke-width:1px;stroke-linecap:butt;stroke-linejoin:miter;stroke-opacity:1"
         d="m 126.86245,275.05576 c -3.29202,16.26282 -2.83782,29.54807 -8.98141,44.90706 l -11.22676,28.06692 c -8.219845,20.54963 3.85468,49.97404 34.80297,43.78439 5.91558,-1.18312 9.49916,2.67725 15.71747,1.12267 7.92898,-1.98224 22.7153,3.10626 29.18959,-3.36803 12.9949,-12.9949 4.49071,-21.80421 4.49071,-39.29368 0,-7.96006 13.68406,-58.95513 4.4907,-59.50186 -11.46812,-0.68201 -17.13485,68.01015 -25.82156,72.97398 -5.84376,3.33929 -15.31974,-2.10036 -25.82156,0 -34.58384,6.91677 0.88064,-65.15899 -4.4907,-78.58736 -2.44529,-6.11321 -7.06753,-1.3009 -12.34945,-10.10409 z"
         id="path7013"
         inkscape:connector-curvature="0"
         sodipodi:nodetypes="cssssssssssc" />
      <path
         style="fill:#f5fb2d;fill-opacity:1;fill-rule:evenodd;stroke:#000000;stroke-width:1px;stroke-linecap:butt;stroke-linejoin:miter;stroke-opacity:1"
         d="m 108.89963,226.78067 c -2.01007,12.25803 -6.17698,28.90327 -1.12268,41.53903 5.69634,14.24083 48.05463,17.6942 60.62454,20.20818 61.00118,12.20024 147.3876,22.13655 195.34572,-25.82156 6.87405,-6.87406 3.34762,-20.12652 5.61338,-29.18959 8.4002,-33.60079 -17.03573,-30.37746 -47.15241,-40.41635 -17.57825,-5.85942 -34.10386,-7.85874 -52.7658,-7.85874 -20.24957,0 -61.57741,3.04491 -80.83272,7.85874 -34.94,8.735 -47.30403,11.86391 -75.21932,25.82155 z"
         id="path6997"
         inkscape:connector-curvature="0"
         sodipodi:nodetypes="cssssssscc" />
      <path
         style="fill:#f6e713;fill-opacity:1;fill-rule:evenodd;stroke:none;stroke-width:1px;stroke-linecap:butt;stroke-linejoin:miter;stroke-opacity:1"
         d="m 259.33829,303.12268 c 2.14332,-8.57332 2.52215,-3.64483 6.73606,-7.85874 2.18951,-2.18951 14.6796,35.84085 7.85874,42.66171 -0.3844,0.38439 -34.89337,4.51331 -43.78439,6.73606 -14.08788,3.52197 -26.78781,15.71748 -37.04833,15.71748 -4.94099,0 -2.24535,-17.96283 -2.24535,-17.96283 11.39341,5.77633 53.85281,-13.47212 61.18587,-11.22677 1.63351,-6.89427 5.14303,-19.44946 7.2974,-28.06691 z"
         id="path7015"
         inkscape:connector-curvature="0"
         sodipodi:nodetypes="sssssscs" />
      <path
         style="fill:#fbf493;fill-opacity:1;fill-rule:evenodd;stroke:none;stroke-width:1px;stroke-linecap:butt;stroke-linejoin:miter;stroke-opacity:1"
         d="m 377.95539,241.37546 c 3.67473,-1.02322 9.50324,4.67471 12.1829,2.12923 4.35817,-4.13994 4.0811,-17.15614 0.16654,-20.09205 -10.75384,-8.06537 -12.34944,27.06229 -12.34944,17.96282 z"
         id="path7017"
         inkscape:connector-curvature="0"
         sodipodi:nodetypes="cssc" />
      <path
         style="fill:#fbf493;fill-opacity:1;fill-rule:evenodd;stroke:none;stroke-width:1px;stroke-linecap:butt;stroke-linejoin:miter;stroke-opacity:1"
         d="m 218.92193,294.14126 c -28.5308,16.67747 16.26009,41.46416 8.98142,12.34945 -1.87421,-7.49683 -0.89686,-9.65459 -8.98142,-12.34945 z"
         id="path7027"
         inkscape:connector-curvature="0" />
      <path
         style="fill:#fbf493;fill-opacity:1;fill-rule:evenodd;stroke:#000000;stroke-width:1px;stroke-linecap:butt;stroke-linejoin:miter;stroke-opacity:1"
         d="m 181.87361,257.09294 c -8.98924,-11.72453 -20.40874,10.00381 -11.22677,14.59479 12.72616,6.36308 21.29486,-7.04372 11.22677,-14.59479 z"
         id="path7031"
         inkscape:connector-curvature="0" />
    </g>
    <g
       id="g7510">
      <path
         style="fill:#134df6;fill-opacity:1;fill-rule:evenodd;stroke:#000000;stroke-width:1px;stroke-linecap:butt;stroke-linejoin:miter;stroke-opacity:1"
         d="m 407.63569,237.47955 c 8.09542,0.14033 15.40107,-3.36803 23.57621,-3.36803 2.16973,0 23.9485,0.75038 19.0855,5.61339 -10.21176,10.21176 -32.62938,-8.26476 -42.66171,-2.24536 z"
         id="path7021"
         inkscape:connector-curvature="0" />
      <path
         style="fill:#134df6;fill-opacity:1;fill-rule:evenodd;stroke:#000000;stroke-width:1px;stroke-linecap:butt;stroke-linejoin:miter;stroke-opacity:1"
         d="m 426.14953,213.34945 c 7.03868,-2.90279 16.66721,-9.12533 24.57981,-7.91114 32.46158,4.98125 -21.21613,6.17477 -24.57981,7.91114 z"
         id="path7023"
         inkscape:connector-curvature="0" />
      <path
         style="fill:none;fill-opacity:1;fill-rule:evenodd;stroke:#000000;stroke-width:1px;stroke-linecap:butt;stroke-linejoin:miter;stroke-opacity:1"
         d="m 161.70503,166.38101 c -1.72885,0.0705 -5.36704,4.43244 -12.1875,11.91992 -8.72981,9.58356 -19.63088,22.99032 -18.80469,32.10937 -5.12018,2.22428 -10.57034,4.78615 -16.82226,7.91211 l -4.49219,7.85938 c -2.01007,12.25803 -6.1754,28.9033 -1.1211,41.53906 2.11762,5.29404 9.30366,9.0957 18.14063,11.91406 -2.32042,13.9801 -2.55862,26.03229 -8.03711,39.72852 l -11.22656,28.06836 c -8.219854,20.54963 3.85444,49.97285 34.80273,43.7832 5.91558,-1.18312 9.49849,2.67763 15.7168,1.12305 7.92898,-1.98224 22.71516,3.1071 29.18945,-3.36719 10.45192,-10.45192 7.00097,-18.20477 5.24805,-29.93555 0.39483,0.47205 0.88371,0.74415 1.48828,0.74415 10.26052,0 22.96095,-12.19483 37.04883,-15.7168 8.89102,-2.22275 43.40075,-6.35194 43.78515,-6.73633 5.45021,-5.45021 -1.42145,-30.77683 -5.52343,-39.63867 36.1418,-1.66617 70.77845,-11.02261 95.33593,-35.58008 1.91612,-1.91611 3.00761,-4.3372 3.65821,-7.01562 0.24034,0.49356 0.50867,0.96859 0.83398,1.40234 2.41991,3.22656 5.54475,6.13933 9.32031,-0.041 2.08132,-3.40698 4.24175,-8.90133 5.90039,-14.45898 2.59436,1.13531 5.15067,2.36457 6.67969,0.91211 4.35817,-4.13994 4.08058,-17.15589 0.16602,-20.0918 -1.97791,-1.48343 -3.64349,-1.49849 -5.04883,-0.60351 -1.90028,-3.98044 -6.40999,-8.62034 -13.65039,-12.86914 l -3.36719,-2.2461 c 0.91139,2.27848 1.42538,4.69865 1.67188,7.19531 -4.75598,-14.17644 -24.87824,-14.18076 -47.70313,-21.78906 -17.57825,-5.85942 -34.10368,-7.85937 -52.76562,-7.85937 -20.24957,0 -61.57673,3.04554 -80.83203,7.85937 -11.55161,2.8879 -20.61332,5.1617 -28.60743,7.41797 0.26306,-0.81398 0.44729,-1.70704 0.52344,-2.71289 1.65533,-21.86574 3.20646,-30.92915 0.67969,-30.82617 z m 36.75,126.78515 c 5.87364,0.89105 11.86815,1.69306 17.9375,2.38282 -22.04043,16.5416 19.00151,38.31075 12.00976,10.34375 -1.21242,-4.84971 -1.24398,-7.46172 -3.29492,-9.4336 11.9887,1.11005 24.19055,1.67884 36.29297,1.4668 -0.46349,0.76555 -0.93788,2.09919 -1.5625,4.59766 -2.15437,8.61745 -5.66336,21.17213 -7.29687,28.0664 -7.12778,-2.18249 -47.43959,15.94049 -60.1543,11.65235 2.48304,-13.72232 8.466,-40.19958 6.06836,-49.07618 z"
         id="path6997-5"
         inkscape:connector-curvature="0" />
    </g>
  </g>
</svg>
